<svg width="270" height="326" xmlns="http://www.w3.org/2000/svg" xmlns:xlink="http://www.w3.org/1999/xlink" overflow="hidden"><defs><clipPath id="clip0"><path d="M269 151 539 151 539 477 269 477Z" fill-rule="evenodd" clip-rule="evenodd"/></clipPath><linearGradient x1="403.497" y1="151.819" x2="403.497" y2="476.181" gradientUnits="userSpaceOnUse" spreadMethod="reflect" id="stroke1"><stop offset="0" stop-color="#030368"/><stop offset="0.25" stop-color="#547DC8"/><stop offset="1" stop-color="#A8E4F4"/></linearGradient><linearGradient x1="403.5" y1="154" x2="403.5" y2="474" gradientUnits="userSpaceOnUse" spreadMethod="reflect" id="fill2"><stop offset="0" stop-color="#ADECF9"/><stop offset="0.19" stop-color="#7697C8"/><stop offset="0.46" stop-color="#4B54A2"/><stop offset="1" stop-color="#000066"/></linearGradient></defs><g clip-path="url(#clip0)" transform="translate(-269 -151)"><path d="M403.5 154 536 211.567 536 416.432 403.5 474 271 416.432C271 348.144 271.829 416.793 271 211.567 403.915 154.901 359.333 173.189 403.5 154Z" stroke="url(#stroke1)" stroke-width="4" stroke-miterlimit="8" fill="url(#fill2)" fill-rule="evenodd"/><text fill="#D9D9D9" font-family="Neogrey,Neogrey_MSFontService,sans-serif" font-weight="500" font-size="32" transform="translate(325.771 395)">LAWPIS<tspan font-size="11" x="146.601" y="-32">TM</tspan></text><path d="M394.192 243.5 412.679 272.211 405.053 275.597 428.338 300.2 420.713 304.308 449.5 345.5 400.68 313.932 409.991 309.55 379.658 289.329 390.527 283.082 358.5 261.869Z" stroke="#FFFF00" stroke-width="1.33333" stroke-miterlimit="8" fill="#FFFF00" fill-rule="evenodd"/></g></svg>